<svg width="43" height="43" viewBox="0 0 43 43" fill="none" xmlns="http://www.w3.org/2000/svg">
<path d="M4 14C4 14 4 10 8 10H36C36 10 40 10 40 14V32C40 32 40 36 36 36H8C8 36 4 36 4 32V14Z" fill="#31373D"/>
<path d="M25 33C30.5228 33 35 28.5228 35 23C35 17.4772 30.5228 13 25 13C19.4772 13 15 17.4772 15 23C15 28.5228 19.4772 33 25 33Z" fill="#CCD6DD"/>
<path d="M25 31C29.4183 31 33 27.4183 33 23C33 18.5817 29.4183 15 25 15C20.5817 15 17 18.5817 17 23C17 27.4183 20.5817 31 25 31Z" fill="#31373D"/>
<path d="M25 28C27.7614 28 30 25.7614 30 23C30 20.2386 27.7614 18 25 18C22.2386 18 20 20.2386 20 23C20 25.7614 22.2386 28 25 28Z" fill="#3B88C3"/>
<path d="M36.5 15C37.3284 15 38 14.3284 38 13.5C38 12.6716 37.3284 12 36.5 12C35.6716 12 35 12.6716 35 13.5C35 14.3284 35.6716 15 36.5 15Z" fill="white"/>
<path d="M20 13L23 7L17 9L13 4L11 9L5 8L9 14L4 18H10L8 24L14 21L20 26L19 18L25 17L20 13Z" fill="#FFAC33"/>
<path d="M14 18L11 20L12 17L9 16L12 14L9 11H13L14 8L16 11L19 10L17 13L20 16L17 17L18 21L14 18Z" fill="white"/>
</svg>
